<svg xmlns="http://www.w3.org/2000/svg"
     viewBox="0 0 165.64 181.17">
  <title>calories</title>
  <path
    d="M137.49,33.84h-105A25.59,25.59,0,0,1,7.21,11.53,2.84,2.84,0,0,1,10,8.33H160a2.84,2.84,0,0,1,2.82,3.2A25.59,25.59,0,0,1,137.49,33.84Z"
    transform="translate(-2.18 -3.33)" style="fill:none;stroke:#9f8958;stroke-miterlimit:10;stroke-width:10px"/>
  <path
    d="M160.46,159.88,145.87,66a14.18,14.18,0,0,0-14-12H38.14a14.17,14.17,0,0,0-14,12L9.55,159.88A17,17,0,0,0,26.36,179.5H143.65A17,17,0,0,0,160.46,159.88Z"
    transform="translate(-2.18 -3.33)" style="fill:none;stroke:#9f8958;stroke-miterlimit:10;stroke-width:10px"/>
  <circle cx="82.82" cy="113.42" r="44.4" style="fill:none;stroke:#9f8958;stroke-miterlimit:10;stroke-width:10px"/>
  <line x1="74.15" y1="50.67" x2="74.15" y2="30.51"
        style="fill:none;stroke:#9f8958;stroke-miterlimit:10;stroke-width:10px"/>
  <line x1="91.49" y1="30.51" x2="91.49" y2="50.67"
        style="fill:none;stroke:#9f8958;stroke-miterlimit:10;stroke-width:10px"/>
  <circle cx="82.82" cy="113.42" r="7.86" style="fill:none;stroke:#9f8958;stroke-miterlimit:10;stroke-width:10px"/>
  <line x1="82.82" y1="69.01" x2="82.82" y2="77.74"
        style="fill:none;stroke:#9f8958;stroke-linecap:round;stroke-miterlimit:10;stroke-width:10px"/>
  <line x1="82.82" y1="149.1" x2="82.82" y2="157.82"
        style="fill:none;stroke:#9f8958;stroke-linecap:round;stroke-miterlimit:10;stroke-width:10px"/>
  <line x1="44.37" y1="91.22" x2="51.92" y2="95.58"
        style="fill:none;stroke:#9f8958;stroke-linecap:round;stroke-miterlimit:10;stroke-width:10px"/>
  <line x1="113.72" y1="131.26" x2="121.28" y2="135.62"
        style="fill:none;stroke:#9f8958;stroke-linecap:round;stroke-miterlimit:10;stroke-width:10px"/>
  <line x1="121.28" y1="91.22" x2="113.72" y2="95.58"
        style="fill:none;stroke:#9f8958;stroke-linecap:round;stroke-miterlimit:10;stroke-width:10px"/>
  <line x1="51.92" y1="131.26" x2="44.37" y2="135.62"
        style="fill:none;stroke:#9f8958;stroke-linecap:round;stroke-miterlimit:10;stroke-width:10px"/>
  <line x1="94.36" y1="93.4" x2="87" y2="106.14"
        style="fill:none;stroke:#9f8958;stroke-linecap:round;stroke-miterlimit:10;stroke-width:10px"/>
</svg>
