<svg xmlns="http://www.w3.org/2000/svg" viewBox="0 0 200 195.81"><title>cart</title><path d="M7.32,15.14H25.69L70.91,106s-11,5.31-11,20.38A18.84,18.84,0,0,0,64.64,139a23.22,23.22,0,0,0,17.62,7.76H176a7,7,0,0,0,7-7h0a7,7,0,0,0-7-7H81.72a7.43,7.43,0,0,1-7.43-7.43h0a7.43,7.43,0,0,1,7.43-7.43H158.6l40.54-77A7.43,7.43,0,0,0,192.57,30H50.11L34.82.49H7.32A7.32,7.32,0,0,0,0,7.81H0A7.33,7.33,0,0,0,7.32,15.14Z" transform="translate(0 -0.49)" style="fill:#fff"/><circle cx="79.97" cy="175.19" r="20.62" style="fill:#fff"/><circle cx="154.9" cy="174.94" r="20.62" style="fill:#fff"/></svg>