<?xml version="1.0" encoding="utf-8"?>
<!-- Generator: Adobe Illustrator 22.1.0, SVG Export Plug-In . SVG Version: 6.00 Build 0)  -->
<svg version="1.1" xmlns="http://www.w3.org/2000/svg" xmlns:xlink="http://www.w3.org/1999/xlink" x="0px" y="0px"
	 viewBox="0 0 31.2 31.2" style="enable-background:new 0 0 31.2 31.2;" xml:space="preserve">
<path fill="#002855" d="M30.4,26.5l-8-8c1.2-1.9,1.8-4,1.8-6.4C24.2,5.4,18.8,0,12.1,0C5.4,0,0,5.4,0,12.1s5.4,12.1,12.1,12.1
	c2.3,0,4.5-0.7,6.4-1.8l8,8c1,1,2.7,1,3.8,0l0.1-0.1C31.4,29.2,31.4,27.5,30.4,26.5z M2.8,12.1c0-2.6,1-4.9,2.7-6.6
	c1.7-1.7,4-2.7,6.6-2.7c5.1,0,9.3,4.2,9.3,9.3c0,5.1-4.2,9.3-9.3,9.3C7,21.4,2.8,17.2,2.8,12.1z"/>
</svg>
