<svg xmlns="http://www.w3.org/2000/svg" width="16" height="8" viewBox="0 0 16 8">
  <defs>
    <style>
      .cls-1 {
        fill: #c5a785;
        fill-rule: evenodd;
      }
    </style>
  </defs>
  <path class="cls-1" d="M-8.141,8a4.008,4.008,0,0,1,4.016,4,4.008,4.008,0,0,1-4.016,4,4.008,4.008,0,0,1-4.016-4A4.008,4.008,0,0,1-8.141,8ZM7.938,8a4,4,0,1,1-4.031,4A4.016,4.016,0,0,1,7.938,8ZM24.016,8A4,4,0,1,1,20,12,4.008,4.008,0,0,1,24.016,8ZM40.109,8a4,4,0,1,1-4.016,4A4.008,4.008,0,0,1,40.109,8ZM56.172,8a4,4,0,1,1-4.016,4A4.008,4.008,0,0,1,56.172,8ZM72.266,8a4,4,0,1,1-4.016,4A4.008,4.008,0,0,1,72.266,8ZM88.328,8a4,4,0,1,1-4.016,4A4.008,4.008,0,0,1,88.328,8Zm16.094,0a4,4,0,1,1-4.016,4A4.008,4.008,0,0,1,104.422,8Zm16.062,0a4,4,0,1,1-4.015,4A4.008,4.008,0,0,1,120.484,8Zm16.094,0a4,4,0,1,1-4.015,4A4.008,4.008,0,0,1,136.578,8Zm16.063,0a4,4,0,1,1-4.016,4A4.008,4.008,0,0,1,152.641,8Zm16.093,0a4,4,0,1,1-4.015,4A4.008,4.008,0,0,1,168.734,8ZM184.8,8a4,4,0,1,1-4.016,4A4.008,4.008,0,0,1,184.8,8Zm16.094,0a4,4,0,1,1-4.016,4A4.008,4.008,0,0,1,200.891,8Zm16.062,0a4,4,0,1,1-4.015,4A4.008,4.008,0,0,1,216.953,8Zm16.094,0a4,4,0,1,1-4.016,4A4.008,4.008,0,0,1,233.047,8Zm16.062,0a4,4,0,1,1-4.015,4A4.008,4.008,0,0,1,249.109,8ZM265.2,8a4,4,0,1,1-4.015,4A4.008,4.008,0,0,1,265.2,8Zm16.078,0a4,4,0,1,1-4.031,4A4.016,4.016,0,0,1,281.281,8Zm16.078,0a4,4,0,1,1-4.015,4A4.008,4.008,0,0,1,297.359,8Zm16.079,0a4,4,0,1,1-4.032,4A4.016,4.016,0,0,1,313.438,8Zm16.078,0a4,4,0,1,1-4.016,4A4.008,4.008,0,0,1,329.516,8Zm16.078,0a4,4,0,1,1-4.031,4A4.016,4.016,0,0,1,345.594,8Zm16.078,0a4,4,0,1,1-4.016,4A4.008,4.008,0,0,1,361.672,8ZM377.75,8a4,4,0,1,1-4.031,4A4.016,4.016,0,0,1,377.75,8Zm16.078,0a4,4,0,1,1-4.015,4A4.008,4.008,0,0,1,393.828,8Zm16.078,0a4,4,0,1,1-4.031,4A4.016,4.016,0,0,1,409.906,8Zm16.078,0a4,4,0,1,1-4.015,4A4.008,4.008,0,0,1,425.984,8Zm16.079,0a4,4,0,1,1-4.032,4A4.016,4.016,0,0,1,442.063,8Zm16.078,0a4,4,0,1,1-4.016,4A4.008,4.008,0,0,1,458.141,8Zm16.078,0a4,4,0,1,1-4.031,4A4.016,4.016,0,0,1,474.219,8ZM490.3,8a4,4,0,1,1-4.016,4A4.008,4.008,0,0,1,490.3,8Zm16.078,0a4,4,0,1,1-4.031,4A4.016,4.016,0,0,1,506.375,8Zm16.078,0a4,4,0,1,1-4.015,4A4.008,4.008,0,0,1,522.453,8Zm16.094,0a4,4,0,1,1-4.016,4A4.008,4.008,0,0,1,538.547,8Zm16.062,0a4,4,0,1,1-4.015,4A4.008,4.008,0,0,1,554.609,8ZM570.7,8a4,4,0,1,1-4.015,4A4.008,4.008,0,0,1,570.7,8Zm16.063,0a4,4,0,1,1-4.016,4A4.008,4.008,0,0,1,586.766,8Zm16.093,0a4,4,0,1,1-4.015,4A4.008,4.008,0,0,1,602.859,8Zm16.063,0a4,4,0,1,1-4.016,4A4.008,4.008,0,0,1,618.922,8Zm16.094,0A4,4,0,1,1,631,12,4.008,4.008,0,0,1,635.016,8Zm16.062,0a4,4,0,1,1-4.015,4A4.008,4.008,0,0,1,651.078,8Zm16.094,0a4,4,0,1,1-4.016,4A4.008,4.008,0,0,1,667.172,8Zm16.062,0a4,4,0,1,1-4.015,4A4.008,4.008,0,0,1,683.234,8Zm16.094,0a4,4,0,1,1-4.015,4A4.008,4.008,0,0,1,699.328,8ZM1438.94,8a4,4,0,1,1-4.03,4A4.019,4.019,0,0,1,1438.94,8Zm16.08,0a4,4,0,1,1-4.02,4A4.008,4.008,0,0,1,1455.02,8Zm16.07,0a4,4,0,1,1-4.03,4A4.021,4.021,0,0,1,1471.09,8Zm16.08,0a4,4,0,1,1-4.01,4A4.01,4.01,0,0,1,1487.17,8Zm16.08,0a4,4,0,1,1-4.03,4A4.012,4.012,0,0,1,1503.25,8Zm16.08,0a4,4,0,1,1-4.02,4A4,4,0,0,1,1519.33,8Zm16.08,0a4,4,0,1,1-4.03,4A4.019,4.019,0,0,1,1535.41,8Zm16.07,0a4,4,0,1,1-4.01,4A4.01,4.01,0,0,1,1551.48,8Zm16.08,0a4,4,0,1,1-4.03,4A4.012,4.012,0,0,1,1567.56,8Zm16.08,0a4,4,0,1,1-4.01,4A4.01,4.01,0,0,1,1583.64,8Zm16.09,0a4,4,0,1,1-4.01,4A4.01,4.01,0,0,1,1599.73,8Zm16.07,0a4,4,0,1,1-4.02,4A4.008,4.008,0,0,1,1615.8,8Zm16.09,0a4,4,0,1,1-4.01,4A4.01,4.01,0,0,1,1631.89,8Zm16.06,0a4,4,0,1,1-4.01,4A4.01,4.01,0,0,1,1647.95,8Zm16.1,0a4,4,0,1,1-4.02,4A4.008,4.008,0,0,1,1664.05,8Zm16.06,0a4,4,0,1,1-4.02,4A4.01,4.01,0,0,1,1680.11,8Zm16.09,0a4,4,0,1,1-4.01,4A4.01,4.01,0,0,1,1696.2,8Zm16.07,0a4,4,0,1,1-4.02,4A4.008,4.008,0,0,1,1712.27,8Zm16.09,0a4,4,0,1,1-4.02,4A4.01,4.01,0,0,1,1728.36,8Zm16.06,0a4,4,0,1,1-4.01,4A4.01,4.01,0,0,1,1744.42,8Zm16.1,0a4,4,0,1,1-4.02,4A4.008,4.008,0,0,1,1760.52,8ZM715.391,8a4,4,0,1,1-4.016,4A4.008,4.008,0,0,1,715.391,8Zm16.093,0a4,4,0,1,1-4.015,4A4.008,4.008,0,0,1,731.484,8Zm16.063,0a4,4,0,1,1-4.016,4A4.008,4.008,0,0,1,747.547,8Zm16.094,0a4,4,0,1,1-4.016,4A4.008,4.008,0,0,1,763.641,8ZM779.7,8a4,4,0,1,1-4.015,4A4.008,4.008,0,0,1,779.7,8ZM795.8,8a4,4,0,1,1-4.016,4A4.008,4.008,0,0,1,795.8,8Zm16.078,0a4,4,0,1,1-4.031,4A4.016,4.016,0,0,1,811.875,8Zm16.078,0a4,4,0,1,1-4.015,4A4.008,4.008,0,0,1,827.953,8Zm16.078,0A4,4,0,1,1,840,12,4.016,4.016,0,0,1,844.031,8Zm16.078,0a4,4,0,1,1-4.015,4A4.008,4.008,0,0,1,860.109,8Zm16.079,0a4,4,0,1,1-4.032,4A4.016,4.016,0,0,1,876.188,8Zm16.078,0a4,4,0,1,1-4.016,4A4.008,4.008,0,0,1,892.266,8Zm16.078,0a4,4,0,1,1-4.031,4A4.016,4.016,0,0,1,908.344,8Zm16.078,0a4,4,0,1,1-4.016,4A4.008,4.008,0,0,1,924.422,8ZM940.5,8a4,4,0,1,1-4.031,4A4.016,4.016,0,0,1,940.5,8Zm16.078,0a4,4,0,1,1-4.015,4A4.008,4.008,0,0,1,956.578,8Zm16.078,0a4,4,0,1,1-4.031,4A4.016,4.016,0,0,1,972.656,8Zm16.078,0a4,4,0,1,1-4.015,4A4.008,4.008,0,0,1,988.734,8Zm16.076,0a4,4,0,1,1-4.03,4A4.012,4.012,0,0,1,1004.81,8Zm16.08,0a4,4,0,1,1-4.01,4A4.01,4.01,0,0,1,1020.89,8Zm16.08,0a4,4,0,1,1-4.03,4A4.012,4.012,0,0,1,1036.97,8Zm16.08,0a4,4,0,1,1-4.02,4A4.008,4.008,0,0,1,1053.05,8Zm16.09,0a4,4,0,1,1-4.01,4A4.01,4.01,0,0,1,1069.14,8Zm16.06,0a4,4,0,1,1-4.01,4A4.01,4.01,0,0,1,1085.2,8Zm16.1,0a4,4,0,1,1-4.02,4A4.008,4.008,0,0,1,1101.3,8Zm16.06,0a4,4,0,1,1-4.02,4A4.01,4.01,0,0,1,1117.36,8Zm16.09,0a4,4,0,1,1-4.01,4A4.01,4.01,0,0,1,1133.45,8Zm16.07,0a4,4,0,1,1-4.02,4A4.008,4.008,0,0,1,1149.52,8Zm16.09,0a4,4,0,1,1-4.02,4A4.01,4.01,0,0,1,1165.61,8Zm16.06,0a4,4,0,1,1-4.01,4A4.01,4.01,0,0,1,1181.67,8Zm16.1,0a4,4,0,1,1-4.02,4A4.008,4.008,0,0,1,1197.77,8Zm16.06,0a4,4,0,1,1-4.02,4A4,4,0,0,1,1213.83,8Zm16.09,0a4,4,0,1,1-4.01,4A4.01,4.01,0,0,1,1229.92,8Zm16.06,0a4,4,0,1,1-4.01,4A4.01,4.01,0,0,1,1245.98,8Zm16.1,0a4,4,0,1,1-4.02,4A4,4,0,0,1,1262.08,8Zm16.06,0a4,4,0,1,1-4.01,4A4.01,4.01,0,0,1,1278.14,8Zm16.09,0a4,4,0,1,1-4.01,4A4.01,4.01,0,0,1,1294.23,8Zm16.08,0a4,4,0,1,1-4.03,4A4.012,4.012,0,0,1,1310.31,8Zm16.08,0a4,4,0,1,1-4.01,4A4.01,4.01,0,0,1,1326.39,8Zm16.08,0a4,4,0,1,1-4.03,4A4.012,4.012,0,0,1,1342.47,8Zm16.08,0a4,4,0,1,1-4.02,4A4.008,4.008,0,0,1,1358.55,8Zm16.08,0a4,4,0,1,1-4.04,4A4.019,4.019,0,0,1,1374.63,8Zm16.07,0a4,4,0,1,1-4.01,4A4.01,4.01,0,0,1,1390.7,8Zm16.08,0a4,4,0,1,1-4.03,4A4.012,4.012,0,0,1,1406.78,8Zm16.08,0a4,4,0,1,1-4.02,4A4.01,4.01,0,0,1,1422.86,8Z" transform="translate(0 -8)"/>
</svg>
