<svg xmlns="http://www.w3.org/2000/svg" width="17" height="8" viewBox="0 0 17 8">
  <defs>
    <style>
      .cls-1 {
        fill: #9f8958;
        fill-rule: evenodd;
      }
    </style>
  </defs>
  <path class="cls-1" d="M-7.922,8a4.04,4.04,0,0,1,4.078,4,4.04,4.04,0,0,1-4.078,4A4.04,4.04,0,0,1-12,12,4.04,4.04,0,0,1-7.922,8ZM8.359,8a4,4,0,1,1-4.078,4A4.04,4.04,0,0,1,8.359,8Zm16.3,0a4,4,0,1,1-4.062,4A4.032,4.032,0,0,1,24.656,8ZM40.938,8a4,4,0,1,1-4.062,4A4.032,4.032,0,0,1,40.938,8Zm16.3,0a4,4,0,1,1-4.078,4A4.04,4.04,0,0,1,57.234,8ZM73.516,8a4,4,0,1,1-4.078,4A4.04,4.04,0,0,1,73.516,8Zm16.3,0a4,4,0,1,1-4.062,4A4.032,4.032,0,0,1,89.813,8Zm16.3,0a4,4,0,1,1-4.078,4A4.04,4.04,0,0,1,106.109,8Zm16.282,0a4,4,0,1,1-4.078,4A4.04,4.04,0,0,1,122.391,8Zm16.281,0a4,4,0,1,1-4.078,4A4.04,4.04,0,0,1,138.672,8Zm16.3,0a4,4,0,1,1-4.063,4A4.032,4.032,0,0,1,154.969,8Zm16.3,0a4,4,0,1,1-4.078,4A4.04,4.04,0,0,1,171.266,8Zm16.281,0a4,4,0,1,1-4.078,4A4.04,4.04,0,0,1,187.547,8Zm16.281,0a4,4,0,1,1-4.078,4A4.04,4.04,0,0,1,203.828,8Zm16.3,0a4,4,0,1,1-4.062,4A4.032,4.032,0,0,1,220.125,8Zm16.3,0a4,4,0,1,1-4.078,4A4.04,4.04,0,0,1,236.422,8ZM252.7,8a4,4,0,1,1-4.078,4A4.04,4.04,0,0,1,252.7,8ZM269,8a4,4,0,1,1-4.062,4A4.032,4.032,0,0,1,269,8Zm16.281,0a4,4,0,1,1-4.062,4A4.032,4.032,0,0,1,285.281,8Zm16.3,0a4,4,0,1,1-4.078,4A4.04,4.04,0,0,1,301.578,8Zm16.281,0a4,4,0,1,1-4.078,4A4.04,4.04,0,0,1,317.859,8Zm16.3,0a4,4,0,1,1-4.062,4A4.032,4.032,0,0,1,334.156,8Zm16.3,0a4,4,0,1,1-4.078,4A4.04,4.04,0,0,1,350.453,8Zm16.281,0a4,4,0,1,1-4.078,4A4.04,4.04,0,0,1,366.734,8Zm16.282,0a4,4,0,1,1-4.078,4A4.04,4.04,0,0,1,383.016,8Zm16.3,0a4,4,0,1,1-4.063,4A4.032,4.032,0,0,1,399.313,8Zm16.3,0a4,4,0,1,1-4.078,4A4.04,4.04,0,0,1,415.609,8Zm16.282,0a4,4,0,1,1-4.078,4A4.04,4.04,0,0,1,431.891,8Zm16.281,0a4,4,0,1,1-4.078,4A4.04,4.04,0,0,1,448.172,8Zm16.3,0a4,4,0,1,1-4.063,4A4.032,4.032,0,0,1,464.469,8Zm16.3,0a4,4,0,1,1-4.078,4A4.04,4.04,0,0,1,480.766,8Zm16.281,0a4,4,0,1,1-4.078,4A4.04,4.04,0,0,1,497.047,8Zm16.3,0a4,4,0,1,1-4.063,4A4.032,4.032,0,0,1,513.344,8Zm16.281,0a4,4,0,1,1-4.062,4A4.032,4.032,0,0,1,529.625,8Zm16.3,0a4,4,0,1,1-4.078,4A4.04,4.04,0,0,1,545.922,8ZM562.2,8a4,4,0,1,1-4.078,4A4.04,4.04,0,0,1,562.2,8Zm16.3,0a4,4,0,1,1-4.062,4A4.032,4.032,0,0,1,578.5,8Zm16.3,0a4,4,0,1,1-4.078,4A4.04,4.04,0,0,1,594.8,8Zm16.281,0A4,4,0,1,1,607,12,4.04,4.04,0,0,1,611.078,8Zm16.281,0a4,4,0,1,1-4.078,4A4.04,4.04,0,0,1,627.359,8Zm16.3,0a4,4,0,1,1-4.062,4A4.032,4.032,0,0,1,643.656,8Zm16.3,0a4,4,0,1,1-4.078,4A4.04,4.04,0,0,1,659.953,8Zm16.281,0a4,4,0,1,1-4.078,4A4.04,4.04,0,0,1,676.234,8Zm16.282,0a4,4,0,1,1-4.078,4A4.04,4.04,0,0,1,692.516,8Zm16.3,0a4,4,0,1,1-4.063,4A4.032,4.032,0,0,1,708.813,8ZM1458.14,8a4,4,0,1,1-4.08,4A4.043,4.043,0,0,1,1458.14,8Zm16.28,0a4,4,0,1,1-4.08,4A4.043,4.043,0,0,1,1474.42,8Zm16.3,0a4,4,0,1,1-4.06,4A4.032,4.032,0,0,1,1490.72,8ZM1507,8a4,4,0,1,1-4.06,4A4.032,4.032,0,0,1,1507,8Zm16.3,0a4,4,0,1,1-4.08,4A4.043,4.043,0,0,1,1523.3,8Zm16.28,0a4,4,0,1,1-4.08,4A4.043,4.043,0,0,1,1539.58,8Zm16.3,0a4,4,0,1,1-4.07,4A4.032,4.032,0,0,1,1555.88,8Zm16.29,0a4,4,0,1,1-4.08,4A4.043,4.043,0,0,1,1572.17,8Zm16.28,0a4,4,0,1,1-4.07,4A4.036,4.036,0,0,1,1588.45,8Zm16.28,0a4,4,0,1,1-4.07,4A4.036,4.036,0,0,1,1604.73,8Zm16.3,0a4,4,0,1,1-4.06,4A4.032,4.032,0,0,1,1621.03,8Zm16.3,0a4,4,0,1,1-4.08,4A4.043,4.043,0,0,1,1637.33,8Zm16.28,0a4,4,0,1,1-4.08,4A4.043,4.043,0,0,1,1653.61,8Zm16.28,0a4,4,0,1,1-4.08,4A4.043,4.043,0,0,1,1669.89,8Zm16.3,0a4,4,0,1,1-4.06,4A4.032,4.032,0,0,1,1686.19,8Zm16.29,0a4,4,0,1,1-4.07,4A4.036,4.036,0,0,1,1702.48,8Zm16.29,0a4,4,0,1,1-4.08,4A4.034,4.034,0,0,1,1718.77,8Zm16.29,0a4,4,0,1,1-4.06,4A4.034,4.034,0,0,1,1735.06,8Zm16.28,0a4,4,0,1,1-4.06,4A4.034,4.034,0,0,1,1751.34,8Zm16.3,0a4,4,0,1,1-4.08,4A4.043,4.043,0,0,1,1767.64,8Zm16.28,0a4,4,0,1,1-4.08,4A4.043,4.043,0,0,1,1783.92,8ZM725.109,8a4,4,0,1,1-4.078,4A4.04,4.04,0,0,1,725.109,8Zm16.282,0a4,4,0,1,1-4.078,4A4.04,4.04,0,0,1,741.391,8Zm16.3,0a4,4,0,1,1-4.063,4A4.032,4.032,0,0,1,757.688,8Zm16.281,0a4,4,0,1,1-4.063,4A4.032,4.032,0,0,1,773.969,8Zm16.3,0a4,4,0,1,1-4.078,4A4.04,4.04,0,0,1,790.266,8Zm16.281,0a4,4,0,1,1-4.078,4A4.04,4.04,0,0,1,806.547,8Zm16.3,0a4,4,0,1,1-4.063,4A4.032,4.032,0,0,1,822.844,8Zm16.3,0a4,4,0,1,1-4.078,4A4.04,4.04,0,0,1,839.141,8Zm16.281,0a4,4,0,1,1-4.078,4A4.04,4.04,0,0,1,855.422,8ZM871.7,8a4,4,0,1,1-4.078,4A4.04,4.04,0,0,1,871.7,8ZM888,8a4,4,0,1,1-4.062,4A4.032,4.032,0,0,1,888,8Zm16.3,0a4,4,0,1,1-4.078,4A4.04,4.04,0,0,1,904.3,8Zm16.281,0a4,4,0,1,1-4.078,4A4.04,4.04,0,0,1,920.578,8Zm16.281,0a4,4,0,1,1-4.078,4A4.04,4.04,0,0,1,936.859,8Zm16.3,0a4,4,0,1,1-4.062,4A4.032,4.032,0,0,1,953.156,8Zm16.3,0a4,4,0,1,1-4.078,4A4.04,4.04,0,0,1,969.453,8Zm16.281,0a4,4,0,1,1-4.078,4A4.04,4.04,0,0,1,985.734,8Zm16.3,0a4,4,0,1,1-4.061,4A4.032,4.032,0,0,1,1002.03,8Zm16.28,0a4,4,0,1,1-4.06,4A4.034,4.034,0,0,1,1018.31,8Zm16.3,0a4,4,0,1,1-4.08,4A4.043,4.043,0,0,1,1034.61,8Zm16.28,0a4,4,0,1,1-4.08,4A4.043,4.043,0,0,1,1050.89,8Zm16.3,0a4,4,0,1,1-4.06,4A4.032,4.032,0,0,1,1067.19,8Zm16.29,0a4,4,0,1,1-4.07,4A4.036,4.036,0,0,1,1083.48,8Zm16.29,0a4,4,0,1,1-4.08,4A4.034,4.034,0,0,1,1099.77,8Zm16.28,0a4,4,0,1,1-4.08,4A4.043,4.043,0,0,1,1116.05,8Zm16.29,0a4,4,0,1,1-4.06,4A4.034,4.034,0,0,1,1132.34,8Zm16.3,0a4,4,0,1,1-4.08,4A4.043,4.043,0,0,1,1148.64,8Zm16.28,0a4,4,0,1,1-4.08,4A4.043,4.043,0,0,1,1164.92,8Zm16.28,0a4,4,0,1,1-4.07,4A4.036,4.036,0,0,1,1181.2,8Zm16.3,0a4,4,0,1,1-4.06,4A4.032,4.032,0,0,1,1197.5,8Zm16.3,0a4,4,0,1,1-4.08,4A4.043,4.043,0,0,1,1213.8,8Zm16.28,0a4,4,0,1,1-4.08,4A4.043,4.043,0,0,1,1230.08,8Zm16.3,0a4,4,0,1,1-4.07,4A4.032,4.032,0,0,1,1246.38,8Zm16.28,0a4,4,0,1,1-4.07,4A4.032,4.032,0,0,1,1262.66,8Zm16.29,0a4,4,0,1,1-4.07,4A4.036,4.036,0,0,1,1278.95,8Zm16.28,0a4,4,0,1,1-4.07,4A4.036,4.036,0,0,1,1295.23,8Zm16.3,0a4,4,0,1,1-4.06,4A4.032,4.032,0,0,1,1311.53,8Zm16.3,0a4,4,0,1,1-4.08,4A4.043,4.043,0,0,1,1327.83,8Zm16.28,0a4,4,0,1,1-4.08,4A4.043,4.043,0,0,1,1344.11,8Zm16.28,0a4,4,0,1,1-4.08,4A4.043,4.043,0,0,1,1360.39,8Zm16.3,0a4,4,0,1,1-4.06,4A4.032,4.032,0,0,1,1376.69,8Zm16.29,0a4,4,0,1,1-4.07,4A4.036,4.036,0,0,1,1392.98,8Zm16.29,0a4,4,0,1,1-4.08,4A4.034,4.034,0,0,1,1409.27,8Zm16.28,0a4,4,0,1,1-4.08,4A4.043,4.043,0,0,1,1425.55,8Zm16.29,0a4,4,0,1,1-4.06,4A4.034,4.034,0,0,1,1441.84,8Z" transform="translate(0 -8)"/>
</svg>
