<svg xmlns="http://www.w3.org/2000/svg" width="16" height="8" viewBox="0 0 16 8">
  <defs>
    <style>
      .cls-1 {
        fill: #fff;
        fill-rule: evenodd;
      }
    </style>
  </defs>
  <path class="cls-1" d="M-887.922,8a4.04,4.04,0,0,1,4.078,4,4.04,4.04,0,0,1-4.078,4A4.04,4.04,0,0,1-892,12,4.04,4.04,0,0,1-887.922,8Zm16.281,0a4.039,4.039,0,0,1,4.078,4,4.039,4.039,0,0,1-4.078,4,4.04,4.04,0,0,1-4.078-4A4.04,4.04,0,0,1-871.641,8Zm16.3,0a4.032,4.032,0,0,1,4.063,4,4.032,4.032,0,0,1-4.063,4,4.032,4.032,0,0,1-4.062-4A4.032,4.032,0,0,1-855.344,8Zm16.281,0A4.032,4.032,0,0,1-835,12a4.032,4.032,0,0,1-4.063,4,4.032,4.032,0,0,1-4.062-4A4.032,4.032,0,0,1-839.063,8Zm16.3,0a4.039,4.039,0,0,1,4.078,4,4.039,4.039,0,0,1-4.078,4,4.04,4.04,0,0,1-4.078-4A4.04,4.04,0,0,1-822.766,8Zm16.282,0a4.04,4.04,0,0,1,4.078,4,4.04,4.04,0,0,1-4.078,4,4.04,4.04,0,0,1-4.079-4A4.04,4.04,0,0,1-806.484,8Zm16.3,0a4.032,4.032,0,0,1,4.063,4,4.032,4.032,0,0,1-4.063,4,4.032,4.032,0,0,1-4.062-4A4.032,4.032,0,0,1-790.188,8Zm16.3,0a4.039,4.039,0,0,1,4.078,4,4.039,4.039,0,0,1-4.078,4,4.04,4.04,0,0,1-4.078-4A4.04,4.04,0,0,1-773.891,8Zm16.282,0a4.04,4.04,0,0,1,4.078,4,4.04,4.04,0,0,1-4.078,4,4.04,4.04,0,0,1-4.079-4A4.04,4.04,0,0,1-757.609,8Zm16.281,0a4.04,4.04,0,0,1,4.078,4,4.04,4.04,0,0,1-4.078,4,4.04,4.04,0,0,1-4.078-4A4.04,4.04,0,0,1-741.328,8Zm16.3,0a4.032,4.032,0,0,1,4.062,4,4.032,4.032,0,0,1-4.062,4,4.032,4.032,0,0,1-4.063-4A4.032,4.032,0,0,1-725.031,8Zm16.3,0a4.04,4.04,0,0,1,4.078,4,4.04,4.04,0,0,1-4.078,4,4.04,4.04,0,0,1-4.079-4A4.04,4.04,0,0,1-708.734,8Zm16.281,0a4.04,4.04,0,0,1,4.078,4,4.04,4.04,0,0,1-4.078,4,4.04,4.04,0,0,1-4.078-4A4.04,4.04,0,0,1-692.453,8Zm16.281,0a4.04,4.04,0,0,1,4.078,4,4.04,4.04,0,0,1-4.078,4,4.04,4.04,0,0,1-4.078-4A4.04,4.04,0,0,1-676.172,8Zm16.3,0a4.031,4.031,0,0,1,4.062,4,4.031,4.031,0,0,1-4.062,4,4.032,4.032,0,0,1-4.063-4A4.032,4.032,0,0,1-659.875,8Zm16.3,0a4.04,4.04,0,0,1,4.078,4,4.04,4.04,0,0,1-4.078,4,4.04,4.04,0,0,1-4.078-4A4.04,4.04,0,0,1-643.578,8ZM-627.3,8a4.04,4.04,0,0,1,4.078,4,4.04,4.04,0,0,1-4.078,4,4.04,4.04,0,0,1-4.078-4A4.04,4.04,0,0,1-627.3,8ZM-611,8a4.031,4.031,0,0,1,4.062,4A4.031,4.031,0,0,1-611,16a4.032,4.032,0,0,1-4.063-4A4.032,4.032,0,0,1-611,8Zm16.281,0a4.032,4.032,0,0,1,4.063,4,4.032,4.032,0,0,1-4.063,4,4.032,4.032,0,0,1-4.062-4A4.032,4.032,0,0,1-594.719,8Zm16.3,0a4.04,4.04,0,0,1,4.078,4,4.04,4.04,0,0,1-4.078,4,4.04,4.04,0,0,1-4.078-4A4.04,4.04,0,0,1-578.422,8Zm16.281,0a4.039,4.039,0,0,1,4.078,4,4.039,4.039,0,0,1-4.078,4,4.04,4.04,0,0,1-4.078-4A4.04,4.04,0,0,1-562.141,8Zm16.3,0a4.032,4.032,0,0,1,4.063,4,4.032,4.032,0,0,1-4.063,4,4.032,4.032,0,0,1-4.062-4A4.032,4.032,0,0,1-545.844,8Zm16.3,0a4.04,4.04,0,0,1,4.078,4,4.04,4.04,0,0,1-4.078,4,4.04,4.04,0,0,1-4.078-4A4.04,4.04,0,0,1-529.547,8Zm16.281,0a4.039,4.039,0,0,1,4.078,4,4.039,4.039,0,0,1-4.078,4,4.04,4.04,0,0,1-4.078-4A4.04,4.04,0,0,1-513.266,8Zm16.282,0a4.04,4.04,0,0,1,4.078,4,4.04,4.04,0,0,1-4.078,4,4.04,4.04,0,0,1-4.079-4A4.04,4.04,0,0,1-496.984,8Zm16.3,0a4.032,4.032,0,0,1,4.063,4,4.032,4.032,0,0,1-4.063,4,4.032,4.032,0,0,1-4.062-4A4.032,4.032,0,0,1-480.688,8Zm16.3,0a4.039,4.039,0,0,1,4.078,4,4.039,4.039,0,0,1-4.078,4,4.04,4.04,0,0,1-4.078-4A4.04,4.04,0,0,1-464.391,8Zm16.282,0a4.04,4.04,0,0,1,4.078,4,4.04,4.04,0,0,1-4.078,4,4.04,4.04,0,0,1-4.079-4A4.04,4.04,0,0,1-448.109,8Zm16.281,0a4.04,4.04,0,0,1,4.078,4,4.04,4.04,0,0,1-4.078,4,4.04,4.04,0,0,1-4.078-4A4.04,4.04,0,0,1-431.828,8Zm16.3,0a4.032,4.032,0,0,1,4.062,4,4.032,4.032,0,0,1-4.062,4,4.032,4.032,0,0,1-4.063-4A4.032,4.032,0,0,1-415.531,8Zm16.3,0a4.04,4.04,0,0,1,4.078,4,4.04,4.04,0,0,1-4.078,4,4.04,4.04,0,0,1-4.079-4A4.04,4.04,0,0,1-399.234,8Zm16.281,0a4.04,4.04,0,0,1,4.078,4,4.04,4.04,0,0,1-4.078,4,4.04,4.04,0,0,1-4.078-4A4.04,4.04,0,0,1-382.953,8Zm16.3,0a4.032,4.032,0,0,1,4.062,4,4.032,4.032,0,0,1-4.062,4,4.032,4.032,0,0,1-4.063-4A4.032,4.032,0,0,1-366.656,8Zm16.281,0a4.031,4.031,0,0,1,4.062,4,4.031,4.031,0,0,1-4.062,4,4.032,4.032,0,0,1-4.063-4A4.032,4.032,0,0,1-350.375,8Zm16.3,0A4.04,4.04,0,0,1-330,12a4.04,4.04,0,0,1-4.078,4,4.04,4.04,0,0,1-4.078-4A4.04,4.04,0,0,1-334.078,8ZM-317.8,8a4.04,4.04,0,0,1,4.078,4,4.04,4.04,0,0,1-4.078,4,4.04,4.04,0,0,1-4.078-4A4.04,4.04,0,0,1-317.8,8Zm16.3,0a4.031,4.031,0,0,1,4.062,4,4.031,4.031,0,0,1-4.062,4,4.032,4.032,0,0,1-4.063-4A4.032,4.032,0,0,1-301.5,8Zm16.3,0a4.04,4.04,0,0,1,4.078,4,4.04,4.04,0,0,1-4.078,4,4.04,4.04,0,0,1-4.078-4A4.04,4.04,0,0,1-285.2,8Zm16.281,0a4.04,4.04,0,0,1,4.078,4,4.04,4.04,0,0,1-4.078,4A4.04,4.04,0,0,1-273,12,4.04,4.04,0,0,1-268.922,8Zm16.281,0a4.039,4.039,0,0,1,4.078,4,4.039,4.039,0,0,1-4.078,4,4.04,4.04,0,0,1-4.078-4A4.04,4.04,0,0,1-252.641,8Zm16.3,0a4.032,4.032,0,0,1,4.063,4,4.032,4.032,0,0,1-4.063,4,4.032,4.032,0,0,1-4.062-4A4.032,4.032,0,0,1-236.344,8Zm16.3,0a4.04,4.04,0,0,1,4.078,4,4.04,4.04,0,0,1-4.078,4,4.04,4.04,0,0,1-4.078-4A4.04,4.04,0,0,1-220.047,8Zm16.281,0a4.039,4.039,0,0,1,4.078,4,4.039,4.039,0,0,1-4.078,4,4.04,4.04,0,0,1-4.078-4A4.04,4.04,0,0,1-203.766,8Zm16.282,0a4.04,4.04,0,0,1,4.078,4,4.04,4.04,0,0,1-4.078,4,4.04,4.04,0,0,1-4.079-4A4.04,4.04,0,0,1-187.484,8Zm16.3,0a4.032,4.032,0,0,1,4.063,4,4.032,4.032,0,0,1-4.063,4,4.032,4.032,0,0,1-4.062-4A4.032,4.032,0,0,1-171.188,8ZM578.141,8a4,4,0,1,1-4.078,4A4.04,4.04,0,0,1,578.141,8Zm16.281,0a4,4,0,1,1-4.078,4A4.04,4.04,0,0,1,594.422,8Zm16.3,0a4,4,0,1,1-4.063,4A4.032,4.032,0,0,1,610.719,8ZM627,8a4,4,0,1,1-4.062,4A4.032,4.032,0,0,1,627,8Zm16.3,0a4,4,0,1,1-4.078,4A4.04,4.04,0,0,1,643.3,8Zm16.281,0a4,4,0,1,1-4.078,4A4.04,4.04,0,0,1,659.578,8Zm16.3,0a4,4,0,1,1-4.062,4A4.032,4.032,0,0,1,675.875,8Zm16.3,0a4,4,0,1,1-4.078,4A4.04,4.04,0,0,1,692.172,8Zm16.281,0a4,4,0,1,1-4.078,4A4.04,4.04,0,0,1,708.453,8Zm16.281,0a4,4,0,1,1-4.078,4A4.04,4.04,0,0,1,724.734,8Zm16.3,0a4,4,0,1,1-4.062,4A4.032,4.032,0,0,1,741.031,8Zm16.3,0a4,4,0,1,1-4.078,4A4.04,4.04,0,0,1,757.328,8Zm16.281,0a4,4,0,1,1-4.078,4A4.04,4.04,0,0,1,773.609,8Zm16.282,0a4,4,0,1,1-4.078,4A4.04,4.04,0,0,1,789.891,8Zm16.3,0a4,4,0,1,1-4.063,4A4.032,4.032,0,0,1,806.188,8Zm16.3,0a4,4,0,1,1-4.078,4A4.04,4.04,0,0,1,822.484,8Zm16.282,0a4,4,0,1,1-4.078,4A4.04,4.04,0,0,1,838.766,8Zm16.3,0A4,4,0,1,1,851,12,4.032,4.032,0,0,1,855.063,8Zm16.281,0a4,4,0,1,1-4.063,4A4.032,4.032,0,0,1,871.344,8Zm16.3,0a4,4,0,1,1-4.078,4A4.04,4.04,0,0,1,887.641,8Zm16.281,0a4,4,0,1,1-4.078,4A4.04,4.04,0,0,1,903.922,8ZM-154.891,8a4.039,4.039,0,0,1,4.078,4,4.039,4.039,0,0,1-4.078,4,4.04,4.04,0,0,1-4.078-4A4.04,4.04,0,0,1-154.891,8Zm16.282,0a4.04,4.04,0,0,1,4.078,4,4.04,4.04,0,0,1-4.078,4,4.04,4.04,0,0,1-4.079-4A4.04,4.04,0,0,1-138.609,8Zm16.3,0a4.032,4.032,0,0,1,4.063,4,4.032,4.032,0,0,1-4.063,4,4.032,4.032,0,0,1-4.062-4A4.032,4.032,0,0,1-122.313,8Zm16.282,0a4.032,4.032,0,0,1,4.062,4,4.032,4.032,0,0,1-4.062,4,4.032,4.032,0,0,1-4.063-4A4.032,4.032,0,0,1-106.031,8Zm16.3,0a4.04,4.04,0,0,1,4.078,4,4.04,4.04,0,0,1-4.078,4,4.04,4.04,0,0,1-4.078-4A4.04,4.04,0,0,1-89.734,8Zm16.281,0a4.04,4.04,0,0,1,4.078,4,4.04,4.04,0,0,1-4.078,4,4.04,4.04,0,0,1-4.078-4A4.04,4.04,0,0,1-73.453,8Zm16.3,0a4.032,4.032,0,0,1,4.063,4,4.032,4.032,0,0,1-4.062,4,4.032,4.032,0,0,1-4.062-4A4.032,4.032,0,0,1-57.156,8Zm16.3,0a4.04,4.04,0,0,1,4.078,4,4.04,4.04,0,0,1-4.078,4,4.04,4.04,0,0,1-4.078-4A4.04,4.04,0,0,1-40.859,8Zm16.281,0A4.04,4.04,0,0,1-20.5,12a4.04,4.04,0,0,1-4.078,4,4.04,4.04,0,0,1-4.078-4A4.04,4.04,0,0,1-24.578,8ZM-8.3,8a4.04,4.04,0,0,1,4.078,4A4.04,4.04,0,0,1-8.3,16a4.04,4.04,0,0,1-4.078-4A4.04,4.04,0,0,1-8.3,8ZM8,8a4,4,0,1,1-4.062,4A4.032,4.032,0,0,1,8,8ZM24.3,8a4,4,0,1,1-4.078,4A4.04,4.04,0,0,1,24.3,8ZM40.578,8A4,4,0,1,1,36.5,12,4.04,4.04,0,0,1,40.578,8ZM56.859,8a4,4,0,1,1-4.078,4A4.04,4.04,0,0,1,56.859,8Zm16.3,0a4,4,0,1,1-4.062,4A4.032,4.032,0,0,1,73.156,8Zm16.3,0a4,4,0,1,1-4.078,4A4.04,4.04,0,0,1,89.453,8Zm16.281,0a4,4,0,1,1-4.078,4A4.04,4.04,0,0,1,105.734,8Zm16.3,0a4,4,0,1,1-4.062,4A4.032,4.032,0,0,1,122.031,8Zm16.282,0a4,4,0,1,1-4.063,4A4.032,4.032,0,0,1,138.313,8Zm16.3,0a4,4,0,1,1-4.078,4A4.04,4.04,0,0,1,154.609,8Zm16.282,0a4,4,0,1,1-4.078,4A4.04,4.04,0,0,1,170.891,8Zm16.3,0a4,4,0,1,1-4.063,4A4.032,4.032,0,0,1,187.188,8Zm16.3,0a4,4,0,1,1-4.078,4A4.04,4.04,0,0,1,203.484,8Zm16.282,0a4,4,0,1,1-4.078,4A4.04,4.04,0,0,1,219.766,8Zm16.281,0a4,4,0,1,1-4.078,4A4.04,4.04,0,0,1,236.047,8Zm16.3,0a4,4,0,1,1-4.063,4A4.032,4.032,0,0,1,252.344,8Zm16.3,0a4,4,0,1,1-4.078,4A4.04,4.04,0,0,1,268.641,8Zm16.281,0a4,4,0,1,1-4.078,4A4.04,4.04,0,0,1,284.922,8ZM301.2,8a4,4,0,1,1-4.078,4A4.04,4.04,0,0,1,301.2,8Zm16.3,0a4,4,0,1,1-4.062,4A4.032,4.032,0,0,1,317.5,8Zm16.3,0a4,4,0,1,1-4.078,4A4.04,4.04,0,0,1,333.8,8Zm16.281,0A4,4,0,1,1,346,12,4.04,4.04,0,0,1,350.078,8Zm16.3,0a4,4,0,1,1-4.062,4A4.032,4.032,0,0,1,366.375,8Zm16.281,0a4,4,0,1,1-4.062,4A4.032,4.032,0,0,1,382.656,8Zm16.3,0a4,4,0,1,1-4.078,4A4.04,4.04,0,0,1,398.953,8Zm16.281,0a4,4,0,1,1-4.078,4A4.04,4.04,0,0,1,415.234,8Zm16.3,0a4,4,0,1,1-4.062,4A4.032,4.032,0,0,1,431.531,8Zm16.3,0a4,4,0,1,1-4.078,4A4.04,4.04,0,0,1,447.828,8Zm16.281,0a4,4,0,1,1-4.078,4A4.04,4.04,0,0,1,464.109,8Zm16.282,0a4,4,0,1,1-4.078,4A4.04,4.04,0,0,1,480.391,8Zm16.3,0a4,4,0,1,1-4.063,4A4.032,4.032,0,0,1,496.688,8Zm16.3,0a4,4,0,1,1-4.078,4A4.04,4.04,0,0,1,512.984,8Zm16.282,0a4,4,0,1,1-4.078,4A4.04,4.04,0,0,1,529.266,8Zm16.281,0a4,4,0,1,1-4.078,4A4.04,4.04,0,0,1,545.547,8Zm16.3,0a4,4,0,1,1-4.063,4A4.032,4.032,0,0,1,561.844,8Z" transform="translate(0 -8)"/>
</svg>
